<?xml version="1.0" encoding="UTF-8" standalone="no" ?>
<!DOCTYPE svg PUBLIC "-//W3C//DTD SVG 1.1//EN" "http://www.w3.org/Graphics/SVG/1.1/DTD/svg11.dtd">
<svg xmlns="http://www.w3.org/2000/svg" xmlns:xlink="http://www.w3.org/1999/xlink" version="1.1" width="17" height="17" viewBox="241.5 241.5 17 17" xml:space="preserve">
<desc>Created with Fabric.js 4.6.0</desc>
<defs>
</defs>
<g transform="matrix(1 0 0 1 250 250)" id="18MMRsOANdCDqlcwdK8ng"  >
<path style="stroke: none; stroke-width: 1; stroke-dasharray: none; stroke-linecap: butt; stroke-dashoffset: 0; stroke-linejoin: miter; stroke-miterlimit: 4; fill: rgb(12,83,166); fill-rule: nonzero; opacity: 1;" vector-effect="non-scaling-stroke"  transform=" translate(-8, -8)" d="M 8 0 C 3.58064 0 0 3.58064 0 8 C 0 12.419360000000001 3.58064 16 8 16 C 12.419360000000001 16 16 12.419360000000001 16 8 C 16 3.58064 12.419360000000001 0 8 0 z M 11.73232 8.77424 L 6.05488 12.03232 C 5.54528 12.31616 4.9032 11.95168 4.9032 11.35488 L 4.9032 4.64528 C 4.9032 4.051679999999999 5.54192 3.6839999999999997 6.05488 3.96784 L 11.73232 7.41952 C 12.26128 7.7163200000000005 12.26128 8.4808 11.73232 8.7744 z" stroke-linecap="round" />
</g>
</svg>